<svg width="190" height="48" viewBox="0 0 190 48" fill="none" xmlns="http://www.w3.org/2000/svg">
<path d="M60.5492 35.5953C60.0289 35.5953 59.5737 35.458 59.1835 35.1833C58.7932 34.9086 58.5981 34.32 58.5981 33.4175C58.5981 33.0055 58.7607 32.3483 59.0859 31.4457C59.4111 30.5432 59.8446 29.4838 60.3866 28.2673C60.9502 27.0313 61.5789 25.7265 62.2726 24.3532C62.9663 22.9798 63.6925 21.6162 64.4512 20.2624C65.21 18.9086 65.947 17.653 66.6624 16.4954C67.3778 15.3378 68.039 14.3568 68.6459 13.5524C69.2746 12.7284 69.7841 12.179 70.1743 11.9044C70.7379 11.5316 71.3015 11.3452 71.8651 11.3452C72.1686 11.3452 72.4613 11.3746 72.7431 11.4335C73.0466 11.4923 73.2959 11.5904 73.491 11.7278C73.9462 11.9828 74.3473 12.4733 74.6941 13.1993C75.0627 13.9056 75.3878 14.759 75.6697 15.7597C75.9732 16.7603 76.2225 17.8394 76.4176 18.9969C76.6343 20.1349 76.8186 21.263 76.9703 22.3814C77.7941 22.2833 78.3577 22.2342 78.6612 22.2342C79.3116 22.2342 79.8861 22.3225 80.3846 22.4991C80.8832 22.656 81.1434 22.9896 81.1651 23.4997C81.2084 23.9902 81.035 24.4022 80.6448 24.7357C80.2763 25.0693 79.7993 25.3145 79.214 25.4715C78.9539 25.55 78.3252 25.6775 77.328 25.8541C77.3931 26.8547 77.4256 27.6983 77.4256 28.385C77.4256 30.1312 77.3172 31.485 77.1004 32.4464C76.9053 33.4077 76.6452 34.0944 76.32 34.5064C76.0165 34.9185 75.6913 35.1637 75.3445 35.2422C75.0193 35.3403 74.7267 35.3893 74.4665 35.3893C74.4448 35.3893 74.4232 35.3893 74.4015 35.3893C73.7728 35.3893 73.3067 35.2422 73.0033 34.9479C72.7214 34.6536 72.5805 34.1631 72.5805 33.4764V31.3869C72.5805 30.7394 72.5697 30.0135 72.548 29.2091C72.5263 28.4047 72.483 27.5512 72.4179 26.6487C71.1389 26.8449 69.8599 27.0411 68.5809 27.2373C67.3236 27.4139 66.2397 27.5708 65.3292 27.7082C64.9173 28.591 64.5596 29.3857 64.2561 30.092C63.9526 30.7787 63.7467 31.3182 63.6383 31.7106C63.3131 32.672 63.0096 33.4273 62.7278 33.9767C62.446 34.5064 62.175 34.8792 61.9149 35.095C61.6764 35.3305 61.4488 35.4678 61.232 35.5071C61.0153 35.5659 60.7876 35.5953 60.5492 35.5953ZM67.1176 24.0883C68.0281 23.8921 68.9061 23.7155 69.7515 23.5586C70.597 23.382 71.3991 23.225 72.1578 23.0877C72.0494 21.8712 71.9193 20.6842 71.7676 19.5267C71.6159 18.3691 71.4424 17.3391 71.2473 16.4365C70.6837 17.4175 70.0225 18.5947 69.2638 19.9681C68.5267 21.3219 67.8113 22.6953 67.1176 24.0883Z" fill="black"/>
<path d="M89.2949 34.7713C88.7312 34.7713 88.2326 34.5261 87.7991 34.0356C87.3872 33.5451 87.0729 32.7897 86.8561 31.7695C86.6826 30.9062 86.5309 29.9252 86.4008 28.8265C86.2708 27.7278 86.1515 26.6487 86.0431 25.5892C85.9564 24.5101 85.8914 23.5684 85.848 22.7639C85.8047 21.9595 85.783 21.4102 85.783 21.1159C85.783 20.0564 85.9889 19.1833 86.4008 18.4966C86.8127 17.7903 87.604 17.4372 88.7746 17.4372C89.2732 17.4372 89.6525 17.6334 89.9127 18.0258C90.1728 18.3985 90.3029 18.9185 90.3029 19.5855C90.3029 19.9975 90.3029 20.5175 90.3029 21.1453C90.3246 21.7535 90.3462 22.4402 90.3679 23.2054C90.3896 24.0491 90.4113 24.9614 90.433 25.9424C90.4763 26.9037 90.498 27.8651 90.498 28.8265C91.2567 27.7474 92.0697 26.5996 92.9368 25.3832C93.8039 24.1472 94.6493 22.9503 95.4731 21.7928C96.3186 20.6352 97.0773 19.615 97.7493 18.7321C98.4213 17.8296 98.9308 17.1919 99.2776 16.8191C99.5811 16.4856 99.9496 16.2011 100.383 15.9657C100.817 15.7106 101.272 15.5831 101.749 15.5831C102.269 15.5831 102.703 15.7695 103.05 16.1422C103.396 16.515 103.57 16.9467 103.57 17.4372C103.57 17.8099 103.483 18.1631 103.31 18.4966C103.158 18.8302 102.963 19.1441 102.724 19.4384C102.074 20.2624 101.305 21.2238 100.416 22.3225C99.5486 23.4212 98.6381 24.5788 97.6843 25.7952C96.7304 26.992 95.7983 28.1496 94.8878 29.2679C93.999 30.3863 93.2078 31.3771 92.5141 32.2403C91.9504 32.9663 91.4952 33.5156 91.1483 33.8884C90.8015 34.2416 90.4872 34.477 90.2053 34.5947C89.9452 34.7124 89.6417 34.7713 89.2949 34.7713Z" fill="black"/>
<path d="M105.505 35.9191C104.811 35.9191 104.182 35.7425 103.619 35.3893C103.055 35.0558 102.611 34.6143 102.285 34.065C101.96 33.496 101.798 32.8878 101.798 32.2403C101.798 31.0239 102.09 29.8369 102.676 28.6793C103.283 27.5218 104.074 26.4231 105.049 25.3832C106.025 24.3433 107.087 23.3918 108.236 22.5285C109.407 21.6456 110.567 20.8903 111.715 20.2624C112.886 19.6346 113.948 19.1441 114.902 18.7909C115.878 18.4378 116.636 18.2612 117.178 18.2612C117.807 18.2612 118.316 18.3887 118.707 18.6438C119.119 18.8792 119.324 19.252 119.324 19.7621C119.324 19.9191 119.281 20.0466 119.194 20.1447C119.476 20.2036 119.704 20.3507 119.877 20.5861C120.051 20.8216 120.137 21.1747 120.137 21.6456C120.137 21.8418 120.083 22.3519 119.975 23.176C119.866 24 119.747 25.0006 119.617 26.1778C119.509 27.355 119.455 28.5812 119.455 29.8565C119.455 30.0527 119.487 30.2293 119.552 30.3863C119.617 30.5236 119.758 30.5923 119.975 30.5923C120.842 30.5923 121.72 30.4353 122.609 30.1214C123.519 29.7879 124.397 29.3857 125.243 28.9148C126.11 28.4243 126.89 27.9436 127.584 27.4727C128.299 26.9822 128.895 26.58 129.372 26.2661C129.871 25.9326 130.196 25.7658 130.348 25.7658C131.085 25.7658 131.453 26.0993 131.453 26.7664C131.453 26.943 131.215 27.3158 130.738 27.8847C130.283 28.4341 129.654 29.0717 128.852 29.7977C128.05 30.504 127.15 31.2103 126.153 31.9166C125.178 32.6033 124.159 33.1723 123.096 33.6235C122.056 34.0748 121.048 34.3004 120.072 34.3004C118.88 34.3004 117.97 34.0454 117.341 33.5353C116.734 33.0251 116.3 32.3384 116.04 31.4752C115.802 30.5923 115.672 29.6015 115.65 28.5028C114.544 29.935 113.395 31.2103 112.203 32.3286C111.033 33.4273 109.873 34.3004 108.724 34.9479C107.575 35.5953 106.502 35.9191 105.505 35.9191ZM117.016 21.1747C114.891 22.0969 112.984 23.1563 111.293 24.3532C109.602 25.5304 108.258 26.7664 107.261 28.0613C106.285 29.3562 105.797 30.6021 105.797 31.7989C105.797 32.1324 105.971 32.2992 106.318 32.2992C106.729 32.2992 107.271 32.0834 107.943 31.6517C108.637 31.2201 109.385 30.6511 110.187 29.9448C110.989 29.2189 111.791 28.4145 112.593 27.5316C113.396 26.6291 114.143 25.7069 114.837 24.7652C115.531 23.8234 116.084 22.9209 116.495 22.0576C116.647 21.7437 116.821 21.4494 117.016 21.1747Z" fill="black"/>
<path d="M152.132 19.9681C152.132 20.2036 152.046 20.4096 151.872 20.5861C151.699 20.7627 151.482 20.9001 151.222 20.9982C150.853 21.1355 150.214 21.3121 149.303 21.5279C148.393 21.7437 147.287 21.989 145.987 22.2636C144.707 22.5383 143.331 22.8228 141.857 23.1171C140.383 23.3918 138.909 23.6567 137.434 23.9117C136.871 25.7952 136.296 27.7376 135.711 29.7388C135.126 31.7204 134.54 33.6726 133.955 35.5953C133.738 36.282 133.478 36.802 133.175 37.1551C132.871 37.5279 132.351 37.7143 131.614 37.7143C130.812 37.7143 130.27 37.4788 129.988 37.008C129.728 36.5567 129.695 35.9387 129.891 35.1539C130.454 33.0153 130.974 31.0239 131.451 29.1796C131.95 27.3354 132.351 25.8443 132.654 24.7063C131.354 24.9025 130.216 25.0595 129.24 25.1772C128.265 25.2753 127.571 25.3145 127.159 25.2949C126.704 25.2557 126.324 25.0889 126.021 24.7946C125.717 24.5003 125.577 24.1373 125.598 23.7057C125.642 23.3133 125.837 22.9798 126.184 22.7051C126.53 22.4108 126.942 22.2342 127.419 22.1754C128.091 22.1165 128.958 22.0282 130.021 21.9105C131.083 21.7928 132.253 21.6554 133.532 21.4985C133.814 20.4979 134.139 19.4678 134.508 18.4083C134.876 17.3292 135.256 16.2992 135.646 15.3182C136.058 14.3176 136.448 13.4445 136.817 12.699C137.185 11.9534 137.521 11.4139 137.825 11.0803C138.063 10.8253 138.356 10.6291 138.703 10.4917C139.071 10.3544 139.429 10.2857 139.776 10.2857C140.231 10.2857 140.599 10.4329 140.881 10.7272C141.163 11.0215 141.304 11.3648 141.304 11.7572C141.304 11.9142 141.293 12.0809 141.272 12.2575C141.25 12.4145 141.206 12.5714 141.141 12.7284C140.73 13.7094 140.285 14.8964 139.808 16.2894C139.353 17.6824 138.876 19.2128 138.377 20.8804C140.003 20.6646 141.597 20.4488 143.158 20.233C144.74 19.9975 146.171 19.7817 147.45 19.5855C148.75 19.3697 149.791 19.1833 150.571 19.0264C151.005 18.889 151.374 18.9185 151.677 19.1147C151.981 19.2912 152.132 19.5757 152.132 19.9681Z" fill="black"/>
<path d="M148.596 35.9191C147.903 35.9191 147.274 35.7425 146.71 35.3893C146.147 35.0558 145.702 34.6143 145.377 34.065C145.052 33.496 144.889 32.8878 144.889 32.2403C144.889 31.0239 145.182 29.8369 145.767 28.6793C146.374 27.5218 147.166 26.4231 148.141 25.3832C149.117 24.3433 150.179 23.3918 151.328 22.5285C152.498 21.6456 153.658 20.8903 154.807 20.2624C155.978 19.6346 157.04 19.1441 157.994 18.7909C158.969 18.4378 159.728 18.2612 160.27 18.2612C160.899 18.2612 161.408 18.3887 161.798 18.6438C162.21 18.8792 162.416 19.252 162.416 19.7621C162.416 19.9191 162.373 20.0466 162.286 20.1447C162.568 20.2036 162.795 20.3507 162.969 20.5861C163.142 20.8216 163.229 21.1747 163.229 21.6456C163.229 21.8418 163.175 22.3519 163.066 23.176C162.958 24 162.839 25.0006 162.709 26.1778C162.6 27.355 162.546 28.5812 162.546 29.8565C162.546 30.0527 162.579 30.2293 162.644 30.3863C162.709 30.5236 162.85 30.5923 163.066 30.5923C163.934 30.5923 164.811 30.4353 165.7 30.1214C166.611 29.7879 167.489 29.3857 168.334 28.9148C169.201 28.4243 169.982 27.9436 170.675 27.4727C171.391 26.9822 171.987 26.58 172.464 26.2661C172.962 25.9326 173.288 25.7658 173.439 25.7658C174.176 25.7658 174.545 26.0993 174.545 26.7664C174.545 26.943 174.307 27.3158 173.83 27.8847C173.374 28.4341 172.746 29.0717 171.944 29.7977C171.142 30.504 170.242 31.2103 169.245 31.9166C168.269 32.6033 167.25 33.1723 166.188 33.6235C165.147 34.0748 164.139 34.3004 163.164 34.3004C161.972 34.3004 161.061 34.0454 160.433 33.5353C159.826 33.0251 159.392 32.3384 159.132 31.4752C158.893 30.5923 158.763 29.6015 158.742 28.5028C157.636 29.935 156.487 31.2103 155.295 32.3286C154.124 33.4273 152.964 34.3004 151.815 34.9479C150.667 35.5953 149.593 35.9191 148.596 35.9191ZM160.107 21.1747C157.983 22.0969 156.075 23.1563 154.384 24.3532C152.693 25.5304 151.349 26.7664 150.352 28.0613C149.377 29.3562 148.889 30.6021 148.889 31.7989C148.889 32.1324 149.062 32.2992 149.409 32.2992C149.821 32.2992 150.363 32.0834 151.035 31.6517C151.729 31.2201 152.477 30.6511 153.279 29.9448C154.081 29.2189 154.883 28.4145 155.685 27.5316C156.487 26.6291 157.235 25.7069 157.929 24.7652C158.622 23.8234 159.175 22.9209 159.587 22.0576C159.739 21.7437 159.912 21.4494 160.107 21.1747Z" fill="black"/>
<path d="M173.416 36.0956C172.874 36.0956 172.408 35.9191 172.018 35.5659C171.649 35.2128 171.465 34.7026 171.465 34.0356C171.465 33.7413 171.509 33.2606 171.595 32.5935C171.704 31.9068 171.834 31.122 171.986 30.2391C172.159 29.3562 172.322 28.4341 172.473 27.4727C172.647 26.5113 172.788 25.599 172.896 24.7357C173.026 23.8725 173.113 23.1367 173.156 22.5285C173.199 21.783 173.416 21.2532 173.806 20.9393C174.197 20.6058 174.663 20.439 175.205 20.439C175.638 20.439 176.028 20.5371 176.375 20.7333C176.744 20.9099 176.971 21.2925 177.058 21.8811C177.167 22.45 177.177 23.2741 177.091 24.3532C178.045 22.7836 179.009 21.3807 179.985 20.1447C180.982 18.9086 182.022 17.9277 183.106 17.2017C184.906 15.9657 186.532 15.3476 187.984 15.3476C188.808 15.3476 189.35 15.5144 189.61 15.8479C189.87 16.1815 190 16.5248 190 16.878C190 17.1134 189.935 17.3292 189.805 17.5254C189.697 17.7216 189.458 17.9277 189.09 18.1435C188.721 18.3593 188.157 18.6438 187.399 18.9969C186.38 19.4678 185.372 20.0858 184.375 20.851C183.399 21.6162 182.424 22.5972 181.448 23.794C180.472 24.9908 179.486 26.4623 178.489 28.2085C177.492 29.9546 176.462 32.0343 175.4 34.4476C175.205 35.1147 174.923 35.5561 174.554 35.7719C174.208 35.9877 173.828 36.0956 173.416 36.0956Z" fill="black"/>
<g clip-path="url(#clip0_405_24)">
<path d="M3.01382 2.0707L30.7309 0.109121C34.1355 -0.170876 35.0104 0.0179218 37.1509 1.5091L45.9987 7.48184C47.458 8.50902 47.9439 8.78902 47.9439 9.90741V42.6638C47.9439 44.7166 47.1658 45.931 44.4426 46.1166L12.2556 47.9838C10.2119 48.0766 9.23848 47.7966 8.1682 46.4894L1.65301 38.3711C0.484215 36.8767 0 35.7583 0 34.4511V5.33466C0 3.65628 0.778083 2.2563 3.01382 2.0707Z" fill="white"/>
<path d="M30.7309 0.109121L3.01382 2.0707C0.778083 2.2563 0 3.65628 0 5.33466V34.4511C0 35.7583 0.484215 36.8767 1.65301 38.3711L8.1682 46.4894C9.23848 47.7966 10.2119 48.0766 12.2556 47.9838L44.4426 46.1166C47.1642 45.931 47.9439 44.7166 47.9439 42.6638V9.90741C47.9439 8.84662 47.5065 8.54102 46.2191 7.63543C46.145 7.5843 46.071 7.5331 45.997 7.48184L37.1509 1.5091C35.0104 0.0179218 34.1355 -0.170876 30.7309 0.109121ZM12.9836 9.37141C10.3555 9.54101 9.75943 9.57941 8.26671 8.41622L4.47147 5.52346C4.08577 5.14906 4.27946 4.68187 5.25122 4.58907L31.8964 2.72349C34.1338 2.53629 35.2992 3.28348 36.1742 3.93628L40.7442 7.10904C40.9395 7.20344 41.4254 7.76183 40.841 7.76183L13.3243 9.34901L12.9836 9.37141ZM9.91972 42.3838V14.5762C9.91972 13.3618 10.3088 12.8018 11.4742 12.7074L43.0784 10.9346C44.1504 10.8418 44.6346 11.4946 44.6346 12.7074V40.3295C44.6346 41.5438 44.4392 42.571 42.6894 42.6638L12.446 44.3438C10.6961 44.4366 9.91972 43.8782 9.91972 42.3838ZM39.7741 16.0673C39.9677 16.9073 39.7741 17.7473 38.8975 17.8433L37.4398 18.1201V38.6511C36.1742 39.3039 35.0087 39.6767 34.0353 39.6767C32.4791 39.6767 32.0901 39.2095 30.9246 37.8111L21.3923 23.4401V37.3439L24.4078 37.9983C24.4078 37.9983 24.4078 39.6783 21.975 39.6783L15.2678 40.0511C15.0724 39.6767 15.2678 38.7439 15.9474 38.5583L17.6989 38.0927V19.7089L15.2678 19.5201C15.0724 18.6801 15.5583 17.4673 16.9208 17.3729L24.1172 16.9089L34.0353 31.4656V18.5873L31.5073 18.3089C31.312 17.2801 32.0901 16.5329 33.0618 16.4417L39.7741 16.0673Z" fill="black"/>
</g>
<defs>
<clipPath id="clip0_405_24">
<rect width="47.9439" height="48" rx="4" fill="white"/>
</clipPath>
</defs>
</svg>
