<svg width="560" height="560" viewBox="0 0 560 560" fill="none" xmlns="http://www.w3.org/2000/svg">
<path d="M527.425 154.275C638.51 368.209 443.242 609.595 210.457 550.667C105.961 524.68 21.9607 434.092 4.57505 327.765C-15.1897 221.987 32.5751 108.34 121.882 48.4967C244.314 -35.6863 413.961 -7.68629 501.621 112.732C502.17 113.281 501.987 114.196 501.255 114.745C500.706 115.294 499.791 115.111 499.242 114.379C487.163 98.8235 473.438 84.732 458.431 72.1046C433.725 51.0588 404.81 34.5882 374.248 23.4248C218.693 -32.9412 47.9476 60.7582 13.9084 223.451C-24.523 405.725 130.484 573.542 315.32 548.471C457.882 530.536 563.843 398.954 552.131 255.843C549.569 221.255 540.418 187.033 525.229 155.556C524.863 155.007 525.229 154.275 525.778 153.908C526.327 153.542 527.059 153.725 527.425 154.275Z" fill="black"/>
</svg>
