<svg width="42" height="18" viewBox="0 0 42 18" fill="none" xmlns="http://www.w3.org/2000/svg">
<g id="Vector">
<path d="M13.7022 9.93881C18.7552 10.4301 24.6775 10.742 28.2865 10.6462C38.3964 10.4225 40.9938 10.157 41.678 9.34806C41.9061 9.07843 42.054 8.79752 41.9814 8.73244C41.7745 8.45648 39.3344 7.78413 38.4148 7.73706C37.8692 7.74261 32.7485 7.54349 27.002 7.33864C14.8299 6.91569 13.113 6.92106 11.6533 7.42889C10.8262 7.69656 10.5751 7.93553 10.5688 8.3735C10.5675 9.16874 11.7138 9.74141 13.7022 9.93881Z" fill="#18181B"/>
<path d="M16.9999 17.7653C17.6965 17.2598 17.714 16.7411 17.0635 16.1285C16.7765 15.8413 13.9066 14.3405 10.693 12.7639C7.45651 11.1566 4.58659 9.65582 4.27283 9.36483C3.68757 8.87108 3.6913 8.84417 4.27301 8.18542C4.59992 7.79254 6.70536 6.36069 8.96739 4.97828C11.4084 3.4839 13.1329 2.24532 13.292 1.8837C13.7464 0.768183 13.5427 0.27324 12.5653 0.0534773C11.7979 -0.109317 11.1193 0.0695225 9.02764 1.0096C5.56819 2.58015 2.58653 4.43734 1.33549 5.79738C0.468527 6.74515 0.275215 7.15682 0.0960631 8.44819C-0.0942856 9.82028 -0.0477188 10.0737 0.661127 11.0511C1.82597 12.6687 3.04128 13.3333 8.8931 15.5279C15.8335 18.1224 16.3567 18.2782 16.9999 17.7653Z" fill="#18181B"/>
</g>
</svg>
