<svg width="360" height="64" viewBox="0 0 360 64" fill="none" xmlns="http://www.w3.org/2000/svg">
<path d="M359.984 2.14778C358.354 4.06547 352.852 4.16515 348.285 4.30868C327.567 4.95455 306.849 5.68017 286.034 6.00709C257.119 6.46558 228.123 6.73668 199.16 6.82041C173.681 6.89616 148.494 7.32276 123.403 8.48295C111.672 9.02516 99.5542 8.92948 87.517 8.26367C61.8936 6.84833 36.6251 7.29884 11.9376 9.61123C6.12873 10.1534 0.691017 9.51953 0.0455909 8.17994C-0.228715 7.59785 1.80442 6.49349 3.5632 6.38584C14.245 5.72402 25.0881 5.18181 35.9958 4.78711C52.551 4.18907 69.1708 4.36848 85.5162 5.20972C101.394 6.02703 116.916 5.50075 132.535 4.85089C159.918 3.71064 187.558 3.79038 215.215 3.68273C246.776 3.55914 278.305 3.08868 309.834 2.68601C324.34 2.50261 338.814 2.10791 353.32 1.85275C355.434 1.81687 357.628 2.03217 360 2.1438L359.984 2.14778Z" fill="black"/>
<path d="M0.0171895 62.2412C1.71319 64.1011 7.2156 64.0098 11.7842 63.9947C32.5125 63.9211 53.2435 63.9271 74.0573 63.5313C102.971 62.9859 131.959 62.2504 160.907 61.3287C186.373 60.5201 211.56 60.0722 236.676 60.3607C248.419 60.4954 260.526 59.9792 272.533 58.896C298.091 56.5921 323.36 56.1653 348.113 57.6193C353.938 57.9596 359.35 57.1373 359.948 55.7762C360.202 55.1849 358.131 54.1518 356.369 54.1052C345.671 53.8146 334.815 53.6491 323.9 53.6332C307.334 53.6102 290.731 54.3664 274.425 55.7744C258.586 57.1424 243.054 57.1552 227.422 57.0479C200.016 56.8588 172.395 57.8979 144.752 58.7502C113.205 59.7222 81.6792 60.3464 50.1552 61.0384C35.6516 61.3586 21.1729 61.4665 6.66681 61.715C4.55307 61.7525 2.36749 62.0439 0.000908375 62.2378L0.0171895 62.2412Z" fill="black"/>
<path d="M0.943415 61.5325C1.16706 54.8959 1.48656 48.2631 1.60067 41.6265C1.76498 31.9768 1.98406 22.3195 0.765405 12.6959C0.518935 10.7457 0.290705 8.79556 0.0351067 6.84913C-0.161157 5.32194 0.464145 4.37119 1.91558 4.04553C3.13424 3.77229 4.21141 4.35246 3.97863 5.3631C3.17989 8.86293 4.3529 12.2804 4.45788 15.7391C4.6587 22.2259 4.90975 28.7128 4.98734 35.2033C5.04212 39.9421 4.90518 44.6884 4.75456 49.4272C4.62676 53.3463 4.35292 57.2616 4.1384 61.1806C4.1247 61.409 4.11556 61.6523 4.00602 61.8582C3.57241 62.6667 3.32596 63.8944 1.93842 63.6062C1.2766 63.4677 0.906881 62.3672 0.409377 61.7009C0.587383 61.6448 0.765409 61.5924 0.943415 61.5363V61.5325Z" fill="black"/>
<path d="M359.036 2.11664C358.812 8.75321 358.493 15.386 358.379 22.0226C358.214 31.6724 357.995 41.3297 359.214 50.9532C359.46 52.9034 359.689 54.8536 359.944 56.8C360.141 58.3272 359.515 59.278 358.064 59.6036C356.845 59.8769 355.768 59.2967 356.001 58.286C356.799 54.7862 355.626 51.3687 355.521 47.9101C355.321 41.4232 355.07 34.9364 354.992 28.4458C354.937 23.707 355.074 18.9607 355.225 14.2219C355.353 10.3029 355.626 6.38755 355.841 2.4685C355.855 2.24017 355.864 1.99684 355.973 1.79097C356.407 0.982453 356.653 -0.245288 358.041 0.0429336C358.703 0.181429 359.072 1.28192 359.57 1.9482C359.392 2.00434 359.214 2.05675 359.036 2.1129V2.11664Z" fill="black"/>
<path d="M359.984 4.03655C358.354 5.95424 352.852 6.05392 348.285 6.19745C327.567 6.84332 306.849 7.56894 286.034 7.89586C257.119 8.35436 228.123 8.62545 199.16 8.70918C173.681 8.78493 148.494 9.21153 123.403 10.3717C111.672 10.9139 99.5541 10.8183 87.5169 10.1524C61.8935 8.7371 36.625 9.1876 11.9375 11.5C6.12862 12.0422 0.690913 11.4083 0.0454865 10.0687C-0.22882 9.48662 1.80431 8.38226 3.5631 8.27461C14.2449 7.61279 25.088 7.07058 35.9957 6.67588C52.5509 6.07784 69.1707 6.25725 85.5161 7.09849C101.394 7.9158 116.916 7.38952 132.535 6.73966C159.918 5.59941 187.558 5.67915 215.215 5.5715C246.776 5.44791 278.305 4.97746 309.834 4.57478C324.34 4.39138 338.814 3.99668 353.32 3.74152C355.433 3.70564 357.628 3.92094 360 4.03257L359.984 4.03655Z" fill="black"/>
<path d="M2.40826 61.5325C2.63191 54.8959 2.95141 48.2631 3.06551 41.6265C3.22983 31.9767 3.44891 22.3195 2.23025 12.6959C1.98378 10.7457 1.75555 8.79555 1.49995 6.84912C1.30369 5.32193 1.92899 4.37117 3.38042 4.04552C4.59908 3.77227 5.67626 4.35244 5.44348 5.36309C4.64473 8.86292 5.81774 12.2804 5.92272 15.7391C6.12355 22.2259 6.3746 28.7127 6.45219 35.2033C6.50696 39.9421 6.37003 44.6884 6.21941 49.4272C6.09161 53.3463 5.81776 57.2616 5.60324 61.1806C5.58955 61.409 5.5804 61.6523 5.47086 61.8582C5.03726 62.6667 4.7908 63.8944 3.40326 63.6062C2.74145 63.4677 2.37173 62.3672 1.87422 61.7009C2.05223 61.6448 2.23025 61.5924 2.40826 61.5362V61.5325Z" fill="black"/>
<path d="M357.544 2.11664C357.32 8.75321 357.001 15.386 356.887 22.0226C356.722 31.6724 356.503 41.3297 357.722 50.9532C357.968 52.9034 358.197 54.8536 358.452 56.8C358.648 58.3272 358.023 59.278 356.572 59.6036C355.353 59.8769 354.276 59.2967 354.509 58.286C355.307 54.7862 354.134 51.3687 354.029 47.9101C353.829 41.4232 353.578 34.9364 353.5 28.4458C353.445 23.707 353.582 18.9607 353.733 14.2219C353.861 10.3029 354.134 6.38755 354.349 2.4685C354.363 2.24017 354.372 1.99684 354.481 1.79097C354.915 0.982453 355.161 -0.245288 356.549 0.0429336C357.211 0.181429 357.58 1.28192 358.078 1.9482C357.9 2.00434 357.722 2.05675 357.544 2.1129V2.11664Z" fill="black"/>
<path d="M-2.11604 60.108C-0.420042 61.9679 5.08236 61.8765 9.65101 61.8615C30.3792 61.7878 51.1103 61.7939 71.9241 61.3981C100.838 60.8527 129.825 60.1172 158.774 59.1955C184.239 58.3869 209.427 57.9389 234.543 58.2275C246.286 58.3622 258.393 57.846 270.399 56.7628C295.958 54.4589 321.226 54.032 345.98 55.4861C351.804 55.8264 357.217 55.0041 357.815 53.6429C358.068 53.0517 355.998 52.0186 354.236 51.972C343.538 51.6814 332.682 51.5159 321.767 51.5C305.201 51.477 288.598 52.2331 272.292 53.6412C256.453 55.0091 240.921 55.022 225.289 54.9146C197.883 54.7255 170.262 55.7646 142.619 56.617C111.072 57.589 79.546 58.2132 48.022 58.9052C33.5184 59.2254 19.0397 59.3333 4.53358 59.5818C2.41984 59.6193 0.234256 59.9106 -2.13232 60.1045L-2.11604 60.108Z" fill="black"/>
</svg>
