<svg width="150" height="157" viewBox="0 0 150 157" fill="none" xmlns="http://www.w3.org/2000/svg">
<g id="Variant=default">
<g clip-path="url(#clip0_209_2004)">
<g id="Vector">
<path d="M9.4292 6.77291L96.1465 0.356915C106.798 -0.558907 109.535 0.0586192 116.232 4.93603L143.914 24.4718C148.48 27.8316 150 28.7474 150 32.4055V139.546C150 146.261 147.566 150.233 139.045 150.84L38.3437 156.947C31.9496 157.25 28.904 156.335 25.5555 152.059L5.17169 125.505C1.51494 120.618 0 116.959 0 112.684V17.4488C0 11.9591 2.43435 7.37997 9.4292 6.77291Z" fill="white"/>
<path d="M96.1465 0.356915L9.4292 6.77291C2.43435 7.37997 0 11.9591 0 17.4488V112.684C0 116.959 1.51494 120.618 5.17169 125.505L25.5555 152.059C28.904 156.335 31.9496 157.25 38.3437 156.947L139.045 150.84C147.56 150.233 150 146.261 150 139.546V32.4055C150 28.9358 148.631 27.9363 144.604 24.9742C144.372 24.807 144.14 24.6395 143.909 24.4718L116.232 4.93603C109.535 0.0586192 106.798 -0.558907 96.1465 0.356915ZM40.6213 30.6523C32.3988 31.2071 30.5339 31.3327 25.8637 27.5281L13.9897 18.0663C12.783 16.8417 13.3889 15.3136 16.4293 15.0101L99.7928 8.90808C106.793 8.29579 110.439 10.7397 113.176 12.8749L127.474 23.2525C128.086 23.5612 129.606 25.3877 127.777 25.3877L41.687 30.5791L40.6213 30.6523ZM31.0354 138.63V47.6762C31.0354 43.7041 32.2526 41.8725 35.8989 41.5637L134.777 35.7652C138.131 35.4617 139.646 37.5969 139.646 41.5637V131.911C139.646 135.883 139.035 139.243 133.56 139.546L38.9392 145.041C33.4645 145.345 31.0354 143.518 31.0354 138.63ZM124.439 52.5536C125.045 55.301 124.439 58.0485 121.697 58.3625L117.136 59.2679V126.421C113.176 128.556 109.53 129.776 106.485 129.776C101.616 129.776 100.399 128.248 96.7525 123.674L66.929 76.6685V122.146L76.3634 124.286C76.3634 124.286 76.3634 129.781 68.7522 129.781L47.7676 131C47.1564 129.776 47.7676 126.725 49.8938 126.118L55.3737 124.595V64.4645L47.7676 63.847C47.1564 61.0995 48.6766 57.1327 52.9393 56.8239L75.4545 55.3063L106.485 102.919V60.796L98.5756 59.8854C97.9644 56.5204 100.399 54.0765 103.439 53.7782L124.439 52.5536Z" fill="black"/>
</g>
</g>
</g>
<defs>
<clipPath id="clip0_209_2004">
<rect width="150" height="157" rx="4" fill="white"/>
</clipPath>
</defs>
</svg>
