<svg xmlns="http://www.w3.org/2000/svg" version="1.1" xmlns:xlink="http://www.w3.org/1999/xlink" width="512" height="512" x="0" y="0" viewBox="0 0 488.658 488.658" style="enable-background:new 0 0 512 512" xml:space="preserve" class=""><g><path d="M225.485 317.756c-21-23-42.8-45.1-67.4-64.3-7.4-5.8-16.2-8-22.1-1.1-5.4 6.3-5 15.3 1.1 22.8 11 13.4 21.9 27 34.3 39.1 19.9 19.4 41 37.6 61.6 56.4.6 1 1.2 1.9 1.8 2.9v.1c3.1 4.8 9.6 6.2 14.4 3.1l4.8-3.1c41.9-27.1 72.7-66.8 109.2-100 1.7-1.5 1.7-6.5.7-9-1.9-5-6.8-5.9-12.1-5.1-17.2 2.7-32.5 11.6-45.7 23-15.8 13.7-31.7 27.2-47.2 41.3 1.2-14.4 2.1-28.8 2-43.2-.4-32.2-2.4-64.4-3.7-96.6 11.5-57.7 4.9-116.8 7.3-175.2.1-2.6-3.4-6.7-5.8-8-4.9-2.5-9 .8-12.1 5.7-10.3 16.3-14.8 36.1-16 56.2-2.9 48.5-7.3 97-4 145.7-.4 6-.8 12.1-1.1 18.1-1.4 30.4-1.9 60.9 0 91.2zM214.685 450.756c-6.3-.4-12.6-.8-18.9-1.1-40-1.7-80-2.2-119.8 1.9-11.3 1.2-20.7 5.8-19.9 14.8.8 8.3 8.8 14.4 20.4 15.3 20.9 1.7 41.9 3.6 62.8 3.4 33.7-.4 67.3-2.4 101-3.7 60.3 11.5 122.1 4.9 183.1 7.3 2.7.1 7-3.4 8.3-5.8 2.7-4.9-.8-9-6-12.1-17-10.3-37.7-14.8-58.8-16-50.5-2.8-101.2-7.2-152.2-4z" fill="#ffffff" opacity="1" data-original="#000000" class=""></path></g></svg>