<?xml version="1.0" encoding="utf-8"?>
<!-- Generator: Adobe Illustrator 28.1.0, SVG Export Plug-In . SVG Version: 6.00 Build 0)  -->
<svg version="1.1" id="Capa_1" xmlns="http://www.w3.org/2000/svg" xmlns:xlink="http://www.w3.org/1999/xlink" x="0px" y="0px"
	 viewBox="0 0 463.5 463.5" style="enable-background:new 0 0 463.5 463.5;" xml:space="preserve">
<g>
	<g>
		<path d="M442.6,28.2c-3.7-7.8-11.2-13.9-22.3-14.2c-127-3.7-254-3.9-381.1-3.9c-2.4-0.8-5-1.3-7.6-1.3c-14.2,0-26,11.8-26,26v7.8
			c0,3.9,1,7.7,2.6,11c-0.8,2.5-1.3,5.3-1.3,8.5C6.6,183-1.9,303.8,0.4,424.8c0,2.5,0.4,4.7,1,6.8c0.8,12.3,9.1,23.6,25,23.1
			c136.9-5,273.8-3.9,410.8-3.9c9.3,0,16-4,20.1-9.7c3.5-4,5.8-9.4,5.9-16.3c2.2-127.6-9-254.8-15.6-382.2
			C447.3,36.8,445.4,32,442.6,28.2z M35.1,415.5c-0.1-108.9,6-253.7,6.5-364.1c0-5.4,4.4-9.7,9.8-9.7c108.3,0.3,244.5,5.7,351.7,7.5
			c5,0.1,9.1,4,9.4,9c5.8,107.3,10.8,243.7,11.4,350.2c0,4.3-3.4,7.8-7.7,7.8c-116.6-0.1-259.5,1-375.7,4.6
			C37.5,420.8,35.1,418.4,35.1,415.5z"/>
	</g>
</g>
</svg>
